<svg width="24" height="24" viewBox="0 0 24 24" fill="none" xmlns="http://www.w3.org/2000/svg">
<path d="M4.29298 18.293L10.586 12L4.29298 5.70702C4.11082 5.51842 4.01003 5.26582 4.01231 5.00362C4.01458 4.74142 4.11975 4.49061 4.30516 4.3052C4.49057 4.11979 4.74138 4.01462 5.00358 4.01235C5.26578 4.01007 5.51838 4.11086 5.70698 4.29302L12 10.586L18.293 4.29302C18.3852 4.19751 18.4956 4.12133 18.6176 4.06892C18.7396 4.01651 18.8708 3.98892 19.0036 3.98777C19.1364 3.98662 19.268 4.01192 19.3909 4.0622C19.5138 4.11248 19.6255 4.18673 19.7194 4.28062C19.8133 4.37452 19.8875 4.48617 19.9378 4.60907C19.9881 4.73196 20.0134 4.86364 20.0122 4.99642C20.0111 5.1292 19.9835 5.26042 19.9311 5.38242C19.8787 5.50443 19.8025 5.61477 19.707 5.70702L13.414 12L19.707 18.293C19.8025 18.3853 19.8787 18.4956 19.9311 18.6176C19.9835 18.7396 20.0111 18.8708 20.0122 19.0036C20.0134 19.1364 19.9881 19.2681 19.9378 19.391C19.8875 19.5139 19.8133 19.6255 19.7194 19.7194C19.6255 19.8133 19.5138 19.8876 19.3909 19.9378C19.268 19.9881 19.1364 20.0134 19.0036 20.0123C18.8708 20.0111 18.7396 19.9835 18.6176 19.9311C18.4956 19.8787 18.3852 19.8025 18.293 19.707L12 13.414L5.70698 19.707C5.51838 19.8892 5.26578 19.99 5.00358 19.9877C4.74138 19.9854 4.49057 19.8802 4.30516 19.6948C4.11975 19.5094 4.01458 19.2586 4.01231 18.9964C4.01003 18.7342 4.11082 18.4816 4.29298 18.293Z" fill="#526EFF"/>
</svg>
